<svg width="48" height="48" viewBox="0 0 48 48" fill="none" xmlns="http://www.w3.org/2000/svg">
<rect width="48" height="48" fill="#323238"/>
<path d="M34.0805 12H14.0507C12.9562 12 12 12.7875 12 13.8691V33.9434C12 35.0309 12.9562 36 14.0507 36H34.0746C35.175 36 36 35.0245 36 33.9434V13.8691C36.0064 12.7875 35.175 12 34.0805 12ZM19.4395 32.0052H16.0012V21.315H19.4395V32.0052ZM17.8393 19.6896H17.8146C16.7143 19.6896 16.0018 18.8705 16.0018 17.8452C16.0018 16.8011 16.733 16.0013 17.858 16.0013C18.983 16.0013 19.6714 16.7952 19.6961 17.8452C19.6955 18.8705 18.983 19.6896 17.8393 19.6896ZM32.0051 32.0052H28.5669V26.16C28.5669 24.7596 28.0666 23.8029 26.8227 23.8029C25.8723 23.8029 25.3098 24.4457 25.0596 25.072C24.9659 25.297 24.9407 25.6034 24.9407 25.9162V32.0052H21.5025V21.315H24.9407V22.8027C25.441 22.0902 26.2227 21.0648 28.0414 21.0648C30.2984 21.0648 32.0057 22.5525 32.0057 25.7598L32.0051 32.0052Z" fill="white"/>
</svg>
